<svg xmlns="http://www.w3.org/2000/svg" xmlns:xlink="http://www.w3.org/1999/xlink" width="500" zoomAndPan="magnify" viewBox="0 0 375 374.999991" height="500" preserveAspectRatio="xMidYMid meet" version="1.0"><defs><g/><clipPath id="1507d83554"><path d="M 15 149.546875 L 112.886719 149.546875 L 112.886719 176 L 15 176 Z M 15 149.546875 " clip-rule="nonzero"/></clipPath><clipPath id="9494ba29b6"><path d="M 86 164 L 102 164 L 102 179.546875 L 86 179.546875 Z M 86 164 " clip-rule="nonzero"/></clipPath><clipPath id="98d006d57c"><path d="M 22 164 L 38 164 L 38 179.546875 L 22 179.546875 Z M 22 164 " clip-rule="nonzero"/></clipPath></defs><g clip-path="url(#1507d83554)"><path fill="#6600ff" d="M 112.234375 166.046875 L 109.203125 166.046875 L 107.683594 164.546875 L 106.167969 164.546875 L 104.652344 163.046875 L 108.1875 163.046875 L 106.167969 161.546875 L 92.519531 158.546875 L 77.351562 157.046875 L 72.800781 158.546875 L 63.699219 158.546875 L 45.5 157.425781 L 45.5 151.046875 L 57.632812 152.546875 L 66.734375 155.546875 L 71.285156 155.546875 L 60.667969 151.046875 L 51.566406 149.546875 L 43.984375 149.546875 L 27.445312 153.636719 L 30.332031 155.546875 L 22.75 155.546875 L 19.71875 157.046875 L 16.683594 155.546875 L 15.167969 157.214844 L 15.777344 158.949219 L 19.71875 161.546875 L 16.683594 161.546875 L 15.167969 163.046875 L 15.167969 166.023438 L 18.199219 169.046875 L 15.167969 169.046875 L 15.167969 173.546875 L 19.945312 174.222656 C 19.789062 173.523438 19.71875 172.792969 19.71875 172.046875 C 19.71875 166.261719 24.480469 161.546875 30.332031 161.546875 C 36.1875 161.546875 40.949219 166.261719 40.949219 172.046875 C 40.949219 173.085938 40.796875 174.105469 40.507812 175.046875 L 83.859375 175.046875 C 83.574219 174.105469 83.417969 173.085938 83.417969 172.046875 C 83.417969 166.261719 88.183594 161.546875 94.035156 161.546875 C 99.886719 161.546875 104.652344 166.261719 104.652344 172.046875 C 104.652344 173.085938 104.496094 174.105469 104.210938 175.046875 L 112.234375 175.046875 L 112.234375 173.523438 L 110.71875 170.546875 L 112.234375 168.648438 Z M 39.433594 157.046875 L 34.882812 154.046875 L 42.46875 151.910156 L 42.46875 157.238281 Z M 45.5 172.046875 L 43.984375 166.046875 L 45.5 166.046875 L 48.535156 169.046875 L 65.21875 169.046875 L 66.734375 172.046875 Z M 106.167969 173.546875 L 106.167969 170.546875 L 107.683594 170.546875 L 109.203125 173.546875 Z M 106.167969 173.546875 " fill-opacity="1" fill-rule="nonzero"/></g><g clip-path="url(#9494ba29b6)"><path fill="#8c52ff" d="M 94.035156 164.546875 C 89.84375 164.546875 86.449219 167.902344 86.449219 172.046875 C 86.449219 176.195312 89.84375 179.546875 94.035156 179.546875 C 98.226562 179.546875 101.617188 176.195312 101.617188 172.046875 C 101.617188 167.902344 98.226562 164.546875 94.035156 164.546875 Z M 94.035156 176.546875 C 91.527344 176.546875 89.484375 174.527344 89.484375 172.046875 C 89.484375 169.566406 91.527344 167.546875 94.035156 167.546875 C 96.542969 167.546875 98.585938 169.566406 98.585938 172.046875 C 98.585938 174.527344 96.542969 176.546875 94.035156 176.546875 Z M 94.035156 176.546875 " fill-opacity="1" fill-rule="nonzero"/></g><g clip-path="url(#98d006d57c)"><path fill="#8c52ff" d="M 30.332031 164.546875 C 26.140625 164.546875 22.75 167.902344 22.75 172.046875 C 22.75 176.195312 26.140625 179.546875 30.332031 179.546875 C 34.527344 179.546875 37.917969 176.195312 37.917969 172.046875 C 37.917969 167.902344 34.527344 164.546875 30.332031 164.546875 Z M 30.332031 176.546875 C 27.824219 176.546875 25.785156 174.527344 25.785156 172.046875 C 25.785156 169.566406 27.824219 167.546875 30.332031 167.546875 C 32.839844 167.546875 34.882812 169.566406 34.882812 172.046875 C 34.882812 174.527344 32.839844 176.546875 30.332031 176.546875 Z M 30.332031 176.546875 " fill-opacity="1" fill-rule="nonzero"/></g><g fill="#080b37" fill-opacity="1"><g transform="translate(102.289412, 164.287627)"><g><path d="M 10.644531 0 L 16.457031 0 L 23.734375 -22.050781 L 31.039062 0 L 36.847656 0 L 46.902344 -33.503906 L 40.640625 -33.503906 L 33.503906 -8.84375 L 26.082031 -31.558594 L 21.410156 -31.558594 L 13.988281 -8.84375 L 6.851562 -33.503906 L 0.59375 -33.503906 Z M 10.644531 0 "/></g></g></g><g fill="#080b37" fill-opacity="1"><g transform="translate(152.889023, 164.287627)"><g><path d="M 3.484375 0 L 9.367188 0 L 9.367188 -11.996094 C 9.367188 -15.933594 11.121094 -18.945312 14.820312 -18.945312 C 18.304688 -18.945312 19.085938 -16.40625 19.085938 -13.492188 L 19.085938 0 L 24.96875 0 L 24.96875 -14.226562 C 24.96875 -19.183594 22.429688 -24.183594 16.21875 -24.183594 C 13.894531 -24.183594 11.261719 -23.261719 9.367188 -20.9375 L 9.367188 -33.503906 L 3.484375 -33.503906 Z M 3.484375 0 "/></g></g></g><g fill="#080b37" fill-opacity="1"><g transform="translate(183.714357, 164.287627)"><g><path d="M 13.300781 0.472656 C 17.285156 0.472656 20.4375 -0.925781 23.023438 -3.792969 L 19.039062 -7.28125 C 17.378906 -5.429688 15.484375 -4.765625 13.347656 -4.765625 C 9.625 -4.765625 7.917969 -6.851562 7.421875 -9.957031 L 23.6875 -9.957031 C 23.804688 -10.289062 23.902344 -11.261719 23.902344 -12.234375 C 23.902344 -17.523438 21.222656 -24.183594 12.921875 -24.183594 C 4.910156 -24.183594 1.304688 -17.925781 1.304688 -11.761719 C 1.304688 -5.382812 5.144531 0.472656 13.300781 0.472656 Z M 7.421875 -14.132812 C 7.96875 -17.097656 9.460938 -19.324219 12.875 -19.324219 C 15.886719 -19.324219 17.832031 -17.523438 18.210938 -14.132812 Z M 7.421875 -14.132812 "/></g></g></g><g fill="#080b37" fill-opacity="1"><g transform="translate(212.121258, 164.287627)"><g><path d="M 13.300781 0.472656 C 17.285156 0.472656 20.4375 -0.925781 23.023438 -3.792969 L 19.039062 -7.28125 C 17.378906 -5.429688 15.484375 -4.765625 13.347656 -4.765625 C 9.625 -4.765625 7.917969 -6.851562 7.421875 -9.957031 L 23.6875 -9.957031 C 23.804688 -10.289062 23.902344 -11.261719 23.902344 -12.234375 C 23.902344 -17.523438 21.222656 -24.183594 12.921875 -24.183594 C 4.910156 -24.183594 1.304688 -17.925781 1.304688 -11.761719 C 1.304688 -5.382812 5.144531 0.472656 13.300781 0.472656 Z M 7.421875 -14.132812 C 7.96875 -17.097656 9.460938 -19.324219 12.875 -19.324219 C 15.886719 -19.324219 17.832031 -17.523438 18.210938 -14.132812 Z M 7.421875 -14.132812 "/></g></g></g><g fill="#080b37" fill-opacity="1"><g transform="translate(240.528151, 164.287627)"><g><path d="M 8.25 0.472656 C 9.625 0.472656 11.359375 0.238281 12.566406 0 L 12.566406 -4.859375 C 11.949219 -4.765625 11.308594 -4.71875 10.976562 -4.71875 C 9.816406 -4.71875 9.082031 -5.191406 9.082031 -6.308594 L 9.082031 -33.503906 L 3.296875 -33.503906 L 3.296875 -4.71875 C 3.296875 -0.546875 5.523438 0.472656 8.25 0.472656 Z M 8.25 0.472656 "/></g></g></g><g fill="#080b37" fill-opacity="1"><g transform="translate(257.222222, 164.287627)"><g><path d="M 4.316406 0 L 10.339844 0 L 10.339844 -13.988281 L 25.015625 -13.988281 L 25.015625 0 L 31.039062 0 L 31.039062 -33.503906 L 25.015625 -33.503906 L 25.015625 -19.515625 L 10.339844 -19.515625 L 10.339844 -33.503906 L 4.316406 -33.503906 Z M 4.316406 0 "/></g></g></g><g fill="#080b37" fill-opacity="1"><g transform="translate(295.682225, 164.287627)"><g><path d="M 11.359375 0.472656 C 14.179688 0.472656 16.644531 -0.546875 18.351562 -2.773438 L 18.351562 0 L 24.234375 0 L 24.234375 -23.6875 L 18.351562 -23.6875 L 18.351562 -13.015625 C 18.351562 -6.164062 15.578125 -4.765625 12.875 -4.765625 C 9.367188 -4.765625 8.582031 -7.136719 8.582031 -11.027344 L 8.582031 -23.6875 L 2.726562 -23.6875 L 2.726562 -11.214844 C 2.726562 -4.078125 5.382812 0.472656 11.359375 0.472656 Z M 11.359375 0.472656 "/></g></g></g><g fill="#080b37" fill-opacity="1"><g transform="translate(326.460133, 164.287627)"><g><path d="M 16.21875 0.472656 C 22.785156 0.472656 26.367188 -5.289062 26.367188 -11.855469 C 26.367188 -18.449219 22.785156 -24.183594 16.125 -24.183594 C 13.585938 -24.183594 11.121094 -23.355469 9.460938 -21.316406 L 9.460938 -33.503906 L 3.484375 -33.503906 L 3.484375 0 L 9.460938 0 L 9.460938 -2.371094 C 11.121094 -0.332031 13.753906 0.472656 16.21875 0.472656 Z M 14.773438 -4.859375 C 10.789062 -4.859375 8.9375 -7.871094 8.9375 -11.855469 C 8.9375 -15.839844 10.789062 -18.945312 14.773438 -18.945312 C 18.753906 -18.945312 20.535156 -15.792969 20.535156 -11.855469 C 20.535156 -7.917969 18.753906 -4.859375 14.773438 -4.859375 Z M 14.773438 -4.859375 "/></g></g></g><g fill="#080b37" fill-opacity="1"><g transform="translate(111.921567, 184.214781)"><g><path d="M 1.296875 -9.890625 L 5.25 -9.890625 C 6.488281 -9.890625 7.445312 -9.59375 8.125 -9 C 8.8125 -8.414062 9.15625 -7.585938 9.15625 -6.515625 C 9.15625 -5.398438 8.8125 -4.53125 8.125 -3.90625 C 7.445312 -3.289062 6.488281 -2.984375 5.25 -2.984375 L 2.96875 -2.984375 L 2.96875 0 L 1.296875 0 Z M 2.96875 -8.40625 L 2.96875 -4.484375 L 5.171875 -4.484375 C 6.765625 -4.484375 7.5625 -5.144531 7.5625 -6.46875 C 7.5625 -7.757812 6.765625 -8.40625 5.171875 -8.40625 Z M 2.96875 -8.40625 "/></g></g></g><g fill="#080b37" fill-opacity="1"><g transform="translate(125.666509, 184.214781)"><g><path d="M 7.578125 0 L 5.765625 -3 C 5.671875 -2.988281 5.519531 -2.984375 5.3125 -2.984375 L 2.96875 -2.984375 L 2.96875 0 L 1.296875 0 L 1.296875 -9.890625 L 5.3125 -9.890625 C 6.582031 -9.890625 7.5625 -9.59375 8.25 -9 C 8.945312 -8.414062 9.296875 -7.585938 9.296875 -6.515625 C 9.296875 -5.722656 9.117188 -5.050781 8.765625 -4.5 C 8.421875 -3.957031 7.914062 -3.5625 7.25 -3.3125 L 9.46875 0 Z M 2.96875 -4.484375 L 5.3125 -4.484375 C 6.914062 -4.484375 7.71875 -5.144531 7.71875 -6.46875 C 7.71875 -7.757812 6.914062 -8.40625 5.3125 -8.40625 L 2.96875 -8.40625 Z M 2.96875 -4.484375 "/></g></g></g><g fill="#080b37" fill-opacity="1"><g transform="translate(140.117342, 184.214781)"><g><path d="M 8.375 -8.40625 L 2.96875 -8.40625 L 2.96875 -5.734375 L 7.8125 -5.734375 L 7.8125 -4.234375 L 2.96875 -4.234375 L 2.96875 -1.5 L 8.546875 -1.5 L 8.546875 0 L 1.296875 0 L 1.296875 -9.890625 L 8.375 -9.890625 Z M 8.375 -8.40625 "/></g></g></g><g fill="#080b37" fill-opacity="1"><g transform="translate(153.622278, 184.214781)"><g><path d="M 11.765625 0 L 10.21875 0 L 10.203125 -7.390625 L 7.078125 -1.03125 L 6 -1.03125 L 2.875 -7.390625 L 2.875 0 L 1.296875 0 L 1.296875 -9.890625 L 3.28125 -9.890625 L 6.546875 -3.328125 L 9.796875 -9.890625 L 11.765625 -9.890625 Z M 11.765625 0 "/></g></g></g><g fill="#080b37" fill-opacity="1"><g transform="translate(170.924875, 184.214781)"><g><path d="M 2.96875 0 L 1.296875 0 L 1.296875 -9.890625 L 2.96875 -9.890625 Z M 2.96875 0 "/></g></g></g><g fill="#080b37" fill-opacity="1"><g transform="translate(179.432159, 184.214781)"><g><path d="M 9.71875 -9.890625 L 9.71875 -4.09375 C 9.71875 -2.800781 9.332031 -1.78125 8.5625 -1.03125 C 7.800781 -0.289062 6.75 0.078125 5.40625 0.078125 C 4.070312 0.078125 3.019531 -0.289062 2.25 -1.03125 C 1.488281 -1.78125 1.109375 -2.800781 1.109375 -4.09375 L 1.109375 -9.890625 L 2.765625 -9.890625 L 2.765625 -4.09375 C 2.765625 -3.269531 3.003906 -2.617188 3.484375 -2.140625 C 3.960938 -1.660156 4.613281 -1.421875 5.4375 -1.421875 C 6.238281 -1.421875 6.875 -1.65625 7.34375 -2.125 C 7.8125 -2.601562 8.046875 -3.257812 8.046875 -4.09375 L 8.046875 -9.890625 Z M 9.71875 -9.890625 "/></g></g></g><g fill="#080b37" fill-opacity="1"><g transform="translate(194.461803, 184.214781)"><g><path d="M 11.765625 0 L 10.21875 0 L 10.203125 -7.390625 L 7.078125 -1.03125 L 6 -1.03125 L 2.875 -7.390625 L 2.875 0 L 1.296875 0 L 1.296875 -9.890625 L 3.28125 -9.890625 L 6.546875 -3.328125 L 9.796875 -9.890625 L 11.765625 -9.890625 Z M 11.765625 0 "/></g></g></g><g fill="#080b37" fill-opacity="1"><g transform="translate(211.764396, 184.214781)"><g/></g></g><g fill="#080b37" fill-opacity="1"><g transform="translate(219.650496, 184.214781)"><g><path d="M 5.6875 -9.9375 C 6.382812 -9.9375 7.0625 -9.800781 7.71875 -9.53125 C 8.382812 -9.269531 8.960938 -8.894531 9.453125 -8.40625 L 8.46875 -7.203125 C 8.113281 -7.585938 7.691406 -7.890625 7.203125 -8.109375 C 6.710938 -8.335938 6.21875 -8.453125 5.71875 -8.453125 C 4.726562 -8.453125 3.890625 -8.113281 3.203125 -7.4375 C 2.515625 -6.769531 2.171875 -5.953125 2.171875 -4.984375 C 2.171875 -3.992188 2.515625 -3.160156 3.203125 -2.484375 C 3.890625 -1.816406 4.726562 -1.484375 5.71875 -1.484375 C 6.738281 -1.484375 7.65625 -1.875 8.46875 -2.65625 L 9.453125 -1.5625 C 8.953125 -1.0625 8.359375 -0.660156 7.671875 -0.359375 C 6.992188 -0.0664062 6.3125 0.078125 5.625 0.078125 C 4.175781 0.078125 2.957031 -0.40625 1.96875 -1.375 C 0.976562 -2.34375 0.484375 -3.539062 0.484375 -4.96875 C 0.484375 -6.363281 0.984375 -7.539062 1.984375 -8.5 C 2.992188 -9.457031 4.226562 -9.9375 5.6875 -9.9375 Z M 5.6875 -9.9375 "/></g></g></g><g fill="#080b37" fill-opacity="1"><g transform="translate(233.734262, 184.214781)"><g><path d="M 7.6875 -2.234375 L 2.703125 -2.234375 L 1.75 0 L 0.015625 0 L 4.390625 -9.890625 L 6.09375 -9.890625 L 10.421875 0 L 8.640625 0 Z M 7.0625 -3.71875 L 5.1875 -8.109375 L 3.328125 -3.71875 Z M 7.0625 -3.71875 "/></g></g></g><g fill="#080b37" fill-opacity="1"><g transform="translate(248.396843, 184.214781)"><g><path d="M 7.578125 0 L 5.765625 -3 C 5.671875 -2.988281 5.519531 -2.984375 5.3125 -2.984375 L 2.96875 -2.984375 L 2.96875 0 L 1.296875 0 L 1.296875 -9.890625 L 5.3125 -9.890625 C 6.582031 -9.890625 7.5625 -9.59375 8.25 -9 C 8.945312 -8.414062 9.296875 -7.585938 9.296875 -6.515625 C 9.296875 -5.722656 9.117188 -5.050781 8.765625 -4.5 C 8.421875 -3.957031 7.914062 -3.5625 7.25 -3.3125 L 9.46875 0 Z M 2.96875 -4.484375 L 5.3125 -4.484375 C 6.914062 -4.484375 7.71875 -5.144531 7.71875 -6.46875 C 7.71875 -7.757812 6.914062 -8.40625 5.3125 -8.40625 L 2.96875 -8.40625 Z M 2.96875 -4.484375 "/></g></g></g><g fill="#080b37" fill-opacity="1"><g transform="translate(262.847672, 184.214781)"><g/></g></g><g fill="#080b37" fill-opacity="1"><g transform="translate(270.733772, 184.214781)"><g><path d="M 7.578125 0 L 5.765625 -3 C 5.671875 -2.988281 5.519531 -2.984375 5.3125 -2.984375 L 2.96875 -2.984375 L 2.96875 0 L 1.296875 0 L 1.296875 -9.890625 L 5.3125 -9.890625 C 6.582031 -9.890625 7.5625 -9.59375 8.25 -9 C 8.945312 -8.414062 9.296875 -7.585938 9.296875 -6.515625 C 9.296875 -5.722656 9.117188 -5.050781 8.765625 -4.5 C 8.421875 -3.957031 7.914062 -3.5625 7.25 -3.3125 L 9.46875 0 Z M 2.96875 -4.484375 L 5.3125 -4.484375 C 6.914062 -4.484375 7.71875 -5.144531 7.71875 -6.46875 C 7.71875 -7.757812 6.914062 -8.40625 5.3125 -8.40625 L 2.96875 -8.40625 Z M 2.96875 -4.484375 "/></g></g></g><g fill="#080b37" fill-opacity="1"><g transform="translate(285.184601, 184.214781)"><g><path d="M 8.375 -8.40625 L 2.96875 -8.40625 L 2.96875 -5.734375 L 7.8125 -5.734375 L 7.8125 -4.234375 L 2.96875 -4.234375 L 2.96875 -1.5 L 8.546875 -1.5 L 8.546875 0 L 1.296875 0 L 1.296875 -9.890625 L 8.375 -9.890625 Z M 8.375 -8.40625 "/></g></g></g><g fill="#080b37" fill-opacity="1"><g transform="translate(298.689534, 184.214781)"><g><path d="M 9.890625 0 L 8.25 0 L 2.96875 -7.09375 L 2.96875 0 L 1.296875 0 L 1.296875 -9.890625 L 2.9375 -9.890625 L 8.25 -2.78125 L 8.25 -9.890625 L 9.890625 -9.890625 Z M 9.890625 0 "/></g></g></g><g fill="#080b37" fill-opacity="1"><g transform="translate(314.11448, 184.214781)"><g><path d="M 8.0625 -8.40625 L 4.921875 -8.40625 L 4.921875 0 L 3.25 0 L 3.25 -8.40625 L 0.125 -8.40625 L 0.125 -9.890625 L 8.0625 -9.890625 Z M 8.0625 -8.40625 "/></g></g></g><g fill="#080b37" fill-opacity="1"><g transform="translate(326.532349, 184.214781)"><g><path d="M 7.6875 -2.234375 L 2.703125 -2.234375 L 1.75 0 L 0.015625 0 L 4.390625 -9.890625 L 6.09375 -9.890625 L 10.421875 0 L 8.640625 0 Z M 7.0625 -3.71875 L 5.1875 -8.109375 L 3.328125 -3.71875 Z M 7.0625 -3.71875 "/></g></g></g><g fill="#080b37" fill-opacity="1"><g transform="translate(341.19493, 184.214781)"><g><path d="M 2.96875 -1.515625 L 7.25 -1.515625 L 7.25 0 L 1.296875 0 L 1.296875 -9.890625 L 2.96875 -9.890625 Z M 2.96875 -1.515625 "/></g></g></g></svg>